External Loads File
version=1
nRows=62
nColumns=13
Range=5.000000e-03-10 seconds
endheader
time 	forceRightX 	forceRightY 	forceRightZ 	pointRightX 	pointRightY 	pointRightZ 	forceLeftX 	forceLeftY 	forceLeftZ 	pointLeftX 	pointLeftY 	pointLeftZ 		
2.505000 14.625947 -51.293613 -0.000000 0.150342 0.355419 -0.140722 -631.159160 1354.855653 -0.000000 0.401463 0.264831 -0.372739
2.510000 13.024888 -49.468828 -0.000000 0.152608 0.360657 -0.140567 -626.841976 1394.180376 -0.000000 0.398887 0.259446 -0.372645
2.515000 11.371919 -46.792891 -0.000000 0.154999 0.365800 -0.140488 -618.175145 1430.859497 -0.000000 0.396348 0.254265 -0.372587
2.520000 9.642655 -43.407739 -0.000000 0.157567 0.370889 -0.140122 -603.019202 1464.238225 -0.000000 0.393547 0.249194 -0.372499
2.525000 7.812035 -39.483669 -0.000000 0.160471 0.376254 -0.140159 -579.220536 1493.941297 -0.000000 0.390670 0.244159 -0.372441
2.530000 6.024843 -35.165835 -0.000000 0.163495 0.381183 -0.139978 -552.281860 1516.887417 -0.000000 0.387784 0.239342 -0.372450
2.535000 4.161768 -30.661152 -0.000000 0.166556 0.386104 -0.139979 -519.505287 1533.532067 -0.000000 0.384651 0.234564 -0.372400
2.540000 2.190414 -26.165191 -0.000000 0.169939 0.391004 -0.139757 -481.577829 1543.201162 -0.000000 0.381604 0.229723 -0.372288
2.545000 0.132549 -21.868903 -0.000000 0.173340 0.395759 -0.139596 -442.344523 1544.528848 -0.000000 0.378459 0.225225 -0.372231
2.550000 -2.078703 -17.947430 -0.000000 0.177056 0.400220 -0.139377 -400.277256 1538.039580 -0.000000 0.375153 0.220721 -0.372236
2.555000 -4.483142 -14.509789 -0.000000 0.180803 0.404909 -0.139239 -356.266970 1523.599912 -0.000000 0.371910 0.216328 -0.372111
2.560000 -7.134203 -11.575630 -0.000000 0.184666 0.409390 -0.139126 -312.975478 1500.850315 -0.000000 0.368645 0.212252 -0.372081
2.565000 -10.130820 -9.046856 -0.000000 0.188682 0.413854 -0.138902 -268.063691 1470.675248 -0.000000 0.365243 0.208091 -0.372022
2.570000 -13.513238 -6.760951 -0.000000 0.193075 0.418168 -0.138647 -223.429507 1433.124387 -0.000000 0.361866 0.204135 -0.371986
2.575000 -17.294613 -4.499014 -0.000000 0.197140 0.422461 -0.138395 -181.396374 1388.441444 -0.000000 0.358422 0.200312 -0.371977
2.580000 -21.463736 -1.924479 -0.000000 0.201532 0.426678 -0.138110 -139.629775 1337.632742 -0.000000 0.354905 0.196515 -0.371973
2.585000 -25.947580 1.309576 -0.000000 0.206204 0.430609 -0.137834 -100.025008 1281.173313 -0.000000 0.351321 0.193013 -0.371977
2.590000 -30.644778 5.611902 -0.000000 0.210686 0.434619 -0.137919 -62.943035 1219.862043 -0.000000 0.347664 0.189452 -0.372071
2.595000 -35.420441 11.449984 -0.000000 0.215385 0.438583 -0.137794 -28.023016 1154.585579 -0.000000 0.343921 0.186090 -0.372125
2.600000 -40.109249 19.277291 -0.000000 0.220261 0.442354 -0.137484 4.010176 1086.200399 -0.000000 0.340105 0.182943 -0.372265
2.605000 -44.520222 29.476215 -0.000000 0.225021 0.445908 -0.137628 32.472679 1015.636524 -0.000000 0.336149 0.179893 -0.372637
2.610000 -48.420077 42.311520 -0.000000 0.229877 0.449423 -0.137582 57.817610 943.833485 -0.000000 0.332205 0.176914 -0.372813
2.615000 -51.586202 57.814535 -0.000000 0.234836 0.452780 -0.137466 80.047202 871.715969 -0.000000 0.328132 0.174233 -0.373075
2.620000 -53.856112 75.760505 -0.000000 0.239844 0.456026 -0.137289 99.004560 800.200693 -0.000000 0.324066 0.171541 -0.373305
2.625000 -55.185539 95.649485 -0.000000 0.244796 0.458972 -0.137133 114.367252 730.191409 -0.000000 0.319935 0.169078 -0.373586
2.630000 -55.530833 116.823875 -0.000000 0.249730 0.461971 -0.136909 126.692298 662.378006 -0.000000 0.315744 0.166679 -0.373893
2.635000 -55.079910 138.447861 -0.000000 0.254621 0.464649 -0.136720 135.534921 597.479707 -0.000000 0.311590 0.164602 -0.374177
2.640000 -53.744040 159.877858 -0.000000 0.259786 0.467366 -0.136638 142.089460 535.706856 -0.000000 0.307372 0.162633 -0.374464
2.645000 -52.210815 180.368839 -0.000000 0.264454 0.469906 -0.136316 144.864908 477.761303 -0.000000 0.303212 0.160848 -0.374804
2.650000 -50.402520 199.683398 -0.000000 0.269268 0.472139 -0.136163 145.304252 423.461198 -0.000000 0.299060 0.159290 -0.375048
2.655000 -48.589389 217.681722 -0.000000 0.274167 0.474387 -0.136108 143.522141 372.886883 -0.000000 0.294933 0.158119 -0.375056
2.660000 -47.133713 234.354999 -0.000000 0.279115 0.476359 -0.136011 139.586960 326.191897 -0.000000 0.290977 0.157031 -0.374926
2.665000 -46.182997 249.794169 -0.000000 0.283986 0.478126 -0.136006 133.964043 283.428532 -0.000000 0.286981 0.156160 -0.375088
2.670000 -45.818762 264.108562 -0.000000 0.288903 0.479793 -0.136013 127.113290 244.642382 -0.000000 0.282999 0.155451 -0.375273
2.675000 -46.069232 277.423719 -0.000000 0.293882 0.481370 -0.136039 119.478393 209.835046 -0.000000 0.278991 0.154809 -0.375386
2.680000 -47.181024 289.841866 -0.000000 0.298693 0.482362 -0.136009 111.305970 179.041095 -0.000000 0.275025 0.154428 -0.375446
2.685000 -48.879105 301.575452 -0.000000 0.303614 0.483328 -0.135846 103.155133 152.018439 -0.000000 0.271038 0.154199 -0.375766
2.690000 -51.156955 312.824214 -0.000000 0.308526 0.483971 -0.135641 95.267568 128.594133 -0.000000 0.266937 0.154043 -0.376176
2.695000 -54.052043 323.784063 -0.000000 0.313486 0.484263 -0.135456 87.767195 108.543569 -0.000000 0.262892 0.154079 -0.376308
2.700000 -57.527234 334.610857 -0.000000 0.318346 0.484307 -0.135242 80.712219 91.553707 -0.000000 0.258841 0.154487 -0.376384
2.705000 -61.286312 345.432587 -0.000000 0.323150 0.484082 -0.135071 74.172944 77.183091 -0.000000 0.254626 0.155055 -0.376442
2.710000 -65.292820 356.293507 -0.000000 0.327938 0.483621 -0.134909 68.134700 64.985248 -0.000000 0.250371 0.155817 -0.376513
2.715000 -69.499797 367.236448 -0.000000 0.332686 0.483046 -0.134671 62.601091 54.454555 -0.000000 0.246080 0.156788 -0.376606
2.720000 -73.674987 378.354917 -0.000000 0.337348 0.481865 -0.134507 57.595525 45.053882 -0.000000 0.241768 0.158083 -0.376683
2.725000 -77.767994 389.731029 -0.000000 0.341909 0.480515 -0.134375 53.101875 36.350492 -0.000000 0.237385 0.159695 -0.376747
2.730000 -81.917451 401.429861 -0.000000 0.346348 0.479071 -0.134197 49.093034 28.063236 -0.000000 0.233010 0.161337 -0.376827
2.735000 -85.808081 413.631708 -0.000000 0.350612 0.477319 -0.134087 45.571868 20.005721 -0.000000 0.228574 0.163343 -0.376879
2.740000 -89.521261 426.452221 -0.000000 0.354700 0.475332 -0.133884 42.501538 12.201636 -0.000000 0.224111 0.165493 -0.376944
2.745000 -93.082448 440.003206 -0.000000 0.358590 0.473135 -0.133710 39.887967 4.810873 -0.000000 0.219654 0.167854 -0.376985
2.750000 -96.173173 454.431542 -0.000000 0.362458 0.470765 -0.133612 37.799658 -1.935355 -0.000000 0.215139 0.170575 -0.377110
2.755000 -99.607571 469.599400 -0.000000 0.365871 0.468214 -0.133594 36.354929 -7.683521 -0.000000 0.210643 0.173464 -0.377227
2.760000 -102.778311 485.615376 -0.000000 0.369255 0.465347 -0.133712 35.689944 -12.243357 -0.000000 0.206137 0.176648 -0.377305
2.765000 -105.961445 502.325333 -0.000000 0.372695 0.462379 -0.133440 35.956484 -15.430042 -0.000000 0.201649 0.180025 -0.377408
2.770000 -109.494602 519.472648 -0.000000 0.375786 0.458974 -0.133300 37.329306 -17.144812 -0.000000 0.197166 0.183670 -0.377496
2.775000 -113.538060 536.755155 -0.000000 0.378758 0.455562 -0.133132 39.976782 -17.397401 -0.000000 0.192704 0.187650 -0.377579
2.780000 -117.701511 553.937637 -0.000000 0.381715 0.451753 -0.132961 44.015376 -16.347498 -0.000000 0.188217 0.191914 -0.377686
2.785000 -122.365879 570.625251 -0.000000 0.384597 0.447615 -0.132856 49.519802 -14.210049 -0.000000 0.183807 0.196418 -0.377697
2.790000 -127.319207 586.578729 -0.000000 0.387412 0.443234 -0.132666 56.447019 -11.333642 -0.000000 0.179334 0.201272 -0.377769
2.795000 -132.857150 601.468304 -0.000000 0.390202 0.438721 -0.132521 64.648794 -8.036726 -0.000000 0.174868 0.206362 -0.377755
2.800000 -138.877636 615.063649 -0.000000 0.392819 0.433923 -0.132253 73.854901 -4.594084 -0.000000 0.170532 0.211839 -0.377603
2.805000 -144.644250 627.307074 -0.000000 0.395530 0.428732 -0.132089 83.706285 -1.237090 -0.000000 0.166222 0.217576 -0.377307
2.810000 -151.234423 637.760385 -0.000000 0.398063 0.423489 -0.131895 93.809331 2.159949 -0.000000 0.162137 0.223398 -0.376985
